<svg width="219" height="107" viewBox="0 0 219 107" fill="none" xmlns="http://www.w3.org/2000/svg">
<path fill-rule="evenodd" clip-rule="evenodd" d="M120.526 106.522C135.119 105.222 148.049 93.5829 148.049 78.9484C148.049 67.9071 146.889 56.875 146.889 45.9002C146.896 38.4363 145.865 31.1167 143.8 23.9438C142.684 20.1236 141.55 14.2867 139.334 10.9615C134.294 3.40586 124.176 -0.47393 113.775 0.0462786C103.891 0.534403 94.2702 4.96649 89.5081 11.3144C86.5611 15.2538 86.0408 18.7967 85.5619 23.5152C84.8286 30.0557 84.4275 36.6167 84.3611 43.1961C84.3611 55.9079 83.5979 68.8971 86.0408 81.3661C87.3173 87.7232 88.8871 94.9282 93.5965 99.6627C95.2763 101.343 98.8788 103.274 103.455 104.374C109.063 105.564 114.73 106.281 120.457 106.522H120.526ZM48.0038 48.0086H23.2606L23.3431 47.8573C25.6623 43.8354 25.6119 43.9523 28.0204 40.0725C31.8269 33.9011 35.2827 27.5394 38.3902 20.9875C38.6102 20.4421 38.7775 19.8829 38.8921 19.3054C39.0067 18.7279 39.064 18.1459 39.0685 17.5592C39.0731 16.9702 39.0227 16.3882 38.915 15.8084C38.8096 15.2309 38.6492 14.6671 38.4383 14.1194C38.2252 13.5717 37.9617 13.0492 37.65 12.5496C37.3383 12.0523 36.9831 11.5871 36.5844 11.1563C36.1856 10.7254 35.7479 10.3336 35.2758 9.98524C34.8015 9.6369 34.2996 9.33669 33.7702 9.08232C33.2408 8.82794 32.6908 8.62628 32.1225 8.47503C31.5542 8.32607 30.9767 8.22982 30.39 8.18857C29.8033 8.14732 29.219 8.16336 28.6346 8.23211C28.0525 8.30086 27.4796 8.42461 26.9204 8.60336C26.359 8.77982 25.8204 9.00899 25.3025 9.28857C24.7869 9.56815 24.301 9.89357 23.845 10.2671C23.389 10.6384 22.9719 11.0486 22.5938 11.4977C22.2156 11.9492 21.8833 12.4304 21.5969 12.9438C18.7713 18.8746 15.6317 24.6359 12.1758 30.2229C9.6 34.4213 9.6573 34.254 7.18 38.5623C5.61021 41.1267 4.21 43.7827 2.98167 46.5304C2.6975 47.1515 2.49584 47.8229 2.14292 48.4188C-1.07229 53.9784 -0.047913 57.9315 1.21938 60.4523C2.67917 63.255 6.71938 66.6559 14.275 66.6559H48.1138C48.1894 74.3719 48.281 82.0971 48.281 89.7879C48.2719 90.0996 48.2788 90.4113 48.2994 90.7206C48.3223 91.0323 48.359 91.3417 48.4117 91.6465C48.4644 91.9536 48.5331 92.2584 48.6156 92.5586C48.6981 92.8588 48.7967 93.1521 48.909 93.4432C49.0213 93.7342 49.1496 94.0184 49.2894 94.2957C49.4315 94.5729 49.585 94.8434 49.7546 95.1046C49.9219 95.3659 50.1029 95.6202 50.2954 95.8632C50.4902 96.1084 50.6942 96.3421 50.9119 96.5644C51.1273 96.789 51.3565 96.9998 51.5948 97.2015C51.8308 97.4009 52.0783 97.5911 52.3373 97.7652C52.594 97.9417 52.8575 98.1044 53.1325 98.2534C53.4052 98.4023 53.6848 98.5375 53.9713 98.659C54.2577 98.7804 54.551 98.8882 54.849 98.9798C55.1446 99.0715 55.4471 99.1494 55.7519 99.2113C56.0567 99.2732 56.3638 99.319 56.6731 99.3511C56.9848 99.3809 57.2942 99.3969 57.6058 99.3969C57.9175 99.3969 58.2269 99.3809 58.5385 99.3511C58.8479 99.319 59.155 99.2732 59.4598 99.2113C59.7646 99.1494 60.0671 99.0715 60.365 98.9798C60.6606 98.8882 60.954 98.7804 61.2404 98.659C61.5269 98.5375 61.8065 98.4023 62.0792 98.2534C62.3542 98.1044 62.6177 97.9417 62.8744 97.7652C63.1333 97.5911 63.3808 97.4009 63.6169 97.2015C63.8552 96.9998 64.0844 96.789 64.2998 96.5644C64.5175 96.3421 64.7215 96.1084 64.9163 95.8632C65.1088 95.6202 65.2898 95.3659 65.4571 95.1046C65.6267 94.8434 65.7802 94.5729 65.9223 94.2957C66.0621 94.0184 66.1904 93.7342 66.3027 93.4432C66.415 93.1521 66.5135 92.8588 66.596 92.5586C66.6786 92.2584 66.7473 91.9536 66.8 91.6465C66.8527 91.3417 66.8894 91.0323 66.9123 90.7206C66.9329 90.4113 66.9398 90.0996 66.9306 89.7879C66.9306 65.1709 65.9819 40.3407 67.5173 15.7648C67.5448 15.4554 67.5563 15.1461 67.554 14.8367C67.5494 14.525 67.5288 14.2157 67.4944 13.9063C67.46 13.5992 67.4096 13.2921 67.3454 12.9896C67.279 12.6848 67.1988 12.3869 67.1048 12.0913C67.0085 11.7957 66.8986 11.5046 66.7748 11.2204C66.651 10.9363 66.5135 10.659 66.3623 10.3886C66.2088 10.1159 66.0438 9.85461 65.8673 9.60024C65.6885 9.34586 65.4983 9.10065 65.2967 8.86461C65.0927 8.63086 64.8796 8.40628 64.655 8.19086C64.4304 7.97774 64.1944 7.77607 63.9492 7.58586C63.704 7.39565 63.4496 7.2169 63.1883 7.0519C62.9248 6.8869 62.6544 6.73565 62.3771 6.59586C62.0975 6.45836 61.8133 6.33461 61.5246 6.22461C61.2335 6.11461 60.9379 6.02065 60.6377 5.94044C60.3375 5.86024 60.035 5.79378 59.7279 5.74336C59.4231 5.69295 59.1138 5.65857 58.8044 5.64024C58.495 5.6219 58.1856 5.61732 57.874 5.62878C57.5646 5.64024 57.2552 5.66774 56.9481 5.70899C56.641 5.75253 56.3363 5.80982 56.0338 5.88315C55.7313 5.95649 55.4356 6.04357 55.1423 6.1467C54.849 6.24982 54.5625 6.36669 54.2806 6.49732C53.9988 6.62794 53.726 6.77232 53.4579 6.93274C53.1921 7.09086 52.9331 7.26274 52.6833 7.44607C52.4335 7.63169 52.1929 7.82649 51.9638 8.03503C51.7323 8.24357 51.5146 8.46357 51.306 8.69274C51.0975 8.9242 50.9004 9.16482 50.7171 9.41461C50.5338 9.6644 50.3619 9.92107 50.2038 10.1892C50.0456 10.455 49.899 10.73 49.7683 11.0119C49.6377 11.2938 49.5208 11.5802 49.4177 11.8736C49.3169 12.1669 49.2298 12.4648 49.1565 12.765C49.0831 13.0675 49.0258 13.3723 48.9846 13.6794C48.941 13.9865 48.9135 14.2959 48.9021 14.6075C48.2054 25.69 48.0129 36.8413 48.0038 48.0086ZM198.571 46.5809H173.809L173.885 46.4365C176.202 42.4146 176.142 42.5338 178.553 38.6448C182.364 32.4894 185.822 26.1415 188.932 19.6034C189.086 19.3261 189.225 19.0396 189.349 18.7486C189.475 18.4575 189.585 18.1596 189.679 17.8571C189.773 17.5546 189.853 17.2475 189.915 16.9382C189.979 16.6265 190.028 16.3148 190.057 15.9986C190.089 15.6823 190.105 15.3661 190.103 15.0498C190.103 14.7313 190.087 14.415 190.053 14.1011C190.021 13.7848 189.97 13.4709 189.906 13.1615C189.842 12.8498 189.759 12.545 189.663 12.2425C189.567 11.94 189.457 11.6444 189.331 11.3534C189.203 11.0623 189.063 10.7782 188.907 10.5009C188.751 10.2259 188.581 9.95774 188.4 9.69878C188.217 9.43982 188.022 9.19003 187.814 8.9517C187.605 8.71107 187.385 8.48419 187.154 8.26649C186.922 8.04878 186.679 7.84482 186.427 7.65232C186.175 7.45982 185.914 7.28107 185.644 7.11607C185.373 6.95107 185.096 6.79982 184.809 6.66232C184.523 6.52482 184.23 6.40336 183.932 6.29565C183.634 6.18794 183.331 6.09628 183.022 6.02065C182.715 5.94274 182.403 5.88315 182.089 5.83961C181.775 5.79378 181.461 5.76628 181.143 5.75253C180.826 5.74107 180.51 5.74336 180.194 5.76399C179.878 5.78461 179.561 5.81899 179.25 5.8717C178.936 5.92211 178.626 5.99086 178.322 6.07336C178.015 6.15815 177.714 6.25669 177.419 6.37128C177.123 6.48586 176.832 6.61419 176.55 6.75628C176.268 6.90065 175.993 7.05878 175.725 7.23065C175.459 7.40253 175.203 7.58586 174.955 7.78524C174.705 7.98232 174.469 8.19315 174.243 8.41545C174.016 8.63774 173.803 8.86919 173.599 9.1144C173.397 9.35732 173.207 9.6117 173.03 9.87524C172.854 10.1388 172.691 10.4092 172.542 10.6888C172.393 10.9707 172.258 11.2571 172.139 11.5504C169.327 17.4721 166.196 23.2196 162.75 28.7975C160.165 32.9959 160.231 32.8263 157.713 37.1415C156.143 39.7082 154.743 42.3642 153.514 45.1119C153.23 45.7238 153.035 46.4044 152.676 47.0002C149.46 52.5506 150.476 56.5382 151.743 58.9994C153.205 61.8273 157.227 65.2373 164.776 65.2373H198.637C198.713 72.9534 198.805 80.6694 198.805 88.3694C198.795 88.6811 198.802 88.9927 198.825 89.3021C198.846 89.6138 198.883 89.9209 198.935 90.2279C198.988 90.535 199.057 90.8398 199.139 91.14C199.222 91.4379 199.32 91.7336 199.433 92.0246C199.545 92.3157 199.673 92.5975 199.813 92.8771C199.955 93.1544 200.109 93.4225 200.278 93.6861C200.445 93.9473 200.626 94.2017 200.819 94.4446C201.014 94.6875 201.218 94.9213 201.435 95.1459C201.653 95.3681 201.88 95.5813 202.118 95.7829C202.357 95.9823 202.604 96.1702 202.861 96.3467C203.118 96.5232 203.383 96.6859 203.656 96.8348C203.929 96.9838 204.208 97.119 204.495 97.2404C204.781 97.3619 205.075 97.4696 205.373 97.5613C205.668 97.6529 205.971 97.7286 206.275 97.7904C206.58 97.8523 206.887 97.9004 207.199 97.9302C207.508 97.9623 207.818 97.9784 208.129 97.9784C208.441 97.9784 208.753 97.9623 209.062 97.9302C209.371 97.9004 209.679 97.8523 209.983 97.7904C210.288 97.7286 210.591 97.6529 210.889 97.5613C211.184 97.4696 211.478 97.3619 211.764 97.2404C212.05 97.119 212.33 96.9838 212.605 96.8348C212.878 96.6859 213.141 96.5232 213.4 96.3467C213.657 96.1702 213.904 95.9823 214.143 95.7829C214.379 95.5813 214.608 95.3681 214.823 95.1459C215.041 94.9213 215.245 94.6875 215.44 94.4446C215.632 94.2017 215.813 93.9473 215.983 93.6861C216.15 93.4225 216.304 93.1544 216.446 92.8771C216.586 92.5975 216.714 92.3157 216.826 92.0246C216.939 91.7336 217.037 91.4379 217.12 91.14C217.202 90.8398 217.271 90.535 217.324 90.2279C217.376 89.9209 217.413 89.6138 217.436 89.3021C217.456 88.9927 217.463 88.6811 217.454 88.3694C217.454 63.75 216.505 38.9152 218.041 14.3463C218.066 13.7436 218.029 13.1454 217.938 12.5496C217.844 11.9515 217.695 11.3717 217.489 10.8034C217.282 10.2373 217.026 9.69649 216.714 9.17857C216.402 8.66294 216.045 8.1794 215.641 7.73253C215.238 7.28565 214.794 6.88003 214.31 6.52024C213.829 6.15815 213.315 5.84649 212.772 5.58524C212.229 5.32169 211.665 5.11545 211.081 4.9619C210.499 4.81065 209.905 4.7144 209.305 4.67774C208.702 4.63878 208.102 4.6594 207.504 4.73732C206.906 4.81753 206.321 4.95274 205.751 5.14295C205.178 5.33544 204.63 5.58065 204.105 5.87857C203.583 6.17878 203.092 6.52253 202.634 6.9167C202.178 7.31086 201.763 7.74399 201.39 8.21836C201.016 8.69274 200.693 9.1969 200.418 9.73315C200.143 10.2717 199.923 10.8286 199.756 11.4084C199.588 11.9882 199.478 12.5771 199.428 13.1798C198.729 24.2715 198.527 35.4204 198.52 46.5809H198.571ZM119.552 87.8652L106.276 85.64C105.887 84.8082 105.605 83.9419 105.438 83.0367C104.991 81.2492 104.697 79.4021 104.354 77.6811C102.094 66.4221 102.992 54.6567 102.992 43.1709C103.066 37.2217 103.439 31.2909 104.118 25.3784C104.228 24.3127 103.758 23.3892 104.429 22.5069C106.377 19.9036 110.642 18.8723 114.698 18.6707C118.241 18.4942 122.077 18.7211 123.808 21.3061C125.125 23.2884 125.235 26.9321 125.9 29.2077C127.46 34.6619 128.235 40.2261 128.224 45.9002C128.224 56.875 129.383 67.9071 129.383 78.9484C129.383 83.9282 124.504 87.1846 119.543 87.8652H119.552Z" fill="#F7FAFF"/>
</svg>
