<svg width="417" height="204" viewBox="0 0 417 204" fill="none" xmlns="http://www.w3.org/2000/svg">
<path fill-rule="evenodd" clip-rule="evenodd" d="M230.095 203.36C257.955 200.879 282.639 178.658 282.639 150.72C282.639 129.641 280.425 108.58 280.425 87.6277C280.438 73.3783 278.469 59.4046 274.527 45.7108C272.397 38.4177 270.231 27.2746 266 20.9265C256.38 6.5021 237.064 -0.904775 217.206 0.08835C198.337 1.02022 179.97 9.48148 170.879 21.6002C165.253 29.1209 164.26 35.8846 163.345 44.8927C161.945 57.379 161.18 69.9046 161.053 82.4652C161.053 106.733 159.596 131.531 164.26 155.335C166.697 167.471 169.694 181.226 178.684 190.265C181.891 193.472 188.769 197.16 197.505 199.26C208.211 201.531 219.03 202.9 229.964 203.36H230.095ZM91.6435 91.6527H44.4067L44.5642 91.364C48.9917 83.6858 48.8954 83.909 53.4935 76.5021C60.7604 64.7202 67.3579 52.5752 73.2904 40.0671C73.7104 39.0259 74.0298 37.9584 74.2485 36.8559C74.4673 35.7533 74.5767 34.6421 74.5854 33.5221C74.5942 32.3977 74.4979 31.2865 74.2923 30.1796C74.091 29.0771 73.7848 28.0009 73.3823 26.9552C72.9754 25.9096 72.4723 24.9121 71.8773 23.9584C71.2823 23.009 70.6042 22.1208 69.8429 21.2983C69.0817 20.4759 68.246 19.7277 67.3448 19.0627C66.4392 18.3977 65.481 17.8246 64.4704 17.339C63.4598 16.8533 62.4098 16.4684 61.3248 16.1796C60.2398 15.8952 59.1373 15.7115 58.0173 15.6327C56.8973 15.554 55.7817 15.5846 54.666 15.7158C53.5548 15.8471 52.461 16.0834 51.3935 16.4246C50.3217 16.7615 49.2935 17.199 48.3048 17.7327C47.3204 18.2665 46.3929 18.8877 45.5223 19.6009C44.6517 20.3096 43.8554 21.0927 43.1335 21.9502C42.4117 22.8121 41.7773 23.7309 41.2304 24.7108C35.836 36.0334 29.8423 47.0321 23.2448 57.6983C18.3273 65.7133 18.4367 65.394 13.7073 73.619C10.7104 78.5146 8.03728 83.5852 5.69228 88.8308C5.14978 90.0165 4.76478 91.2983 4.09103 92.4358C-2.0471 103.05 -0.0914702 110.596 2.3279 115.409C5.11478 120.76 12.8279 127.252 27.2523 127.252H91.8535C91.9979 141.983 92.1729 156.731 92.1729 171.413C92.1554 172.008 92.1685 172.603 92.2079 173.194C92.2517 173.789 92.3217 174.38 92.4223 174.961C92.5229 175.548 92.6542 176.13 92.8117 176.703C92.9692 177.276 93.1573 177.836 93.3717 178.391C93.586 178.947 93.831 179.49 94.0979 180.019C94.3691 180.548 94.6623 181.065 94.986 181.563C95.3054 182.062 95.651 182.548 96.0185 183.011C96.3904 183.48 96.7798 183.926 97.1954 184.35C97.6067 184.779 98.0442 185.181 98.4992 185.566C98.9498 185.947 99.4223 186.31 99.9166 186.643C100.407 186.98 100.91 187.29 101.435 187.575C101.955 187.859 102.489 188.117 103.036 188.349C103.583 188.581 104.143 188.786 104.712 188.961C105.276 189.136 105.854 189.285 106.435 189.403C107.017 189.521 107.604 189.609 108.194 189.67C108.789 189.727 109.38 189.758 109.975 189.758C110.57 189.758 111.16 189.727 111.755 189.67C112.346 189.609 112.932 189.521 113.514 189.403C114.096 189.285 114.674 189.136 115.242 188.961C115.807 188.786 116.367 188.581 116.914 188.349C117.46 188.117 117.994 187.859 118.515 187.575C119.04 187.29 119.543 186.98 120.033 186.643C120.527 186.31 121 185.947 121.45 185.566C121.905 185.181 122.343 184.779 122.754 184.35C123.17 183.926 123.559 183.48 123.931 183.011C124.299 182.548 124.644 182.062 124.964 181.563C125.287 181.065 125.58 180.548 125.852 180.019C126.119 179.49 126.364 178.947 126.578 178.391C126.792 177.836 126.98 177.276 127.138 176.703C127.295 176.13 127.427 175.548 127.527 174.961C127.628 174.38 127.698 173.789 127.742 173.194C127.781 172.603 127.794 172.008 127.777 171.413C127.777 124.417 125.965 77.014 128.897 30.0965C128.949 29.5058 128.971 28.9152 128.967 28.3246C128.958 27.7296 128.919 27.139 128.853 26.5483C128.787 25.9621 128.691 25.3759 128.569 24.7983C128.442 24.2165 128.289 23.6477 128.109 23.0834C127.925 22.519 127.715 21.9634 127.479 21.4209C127.243 20.8784 126.98 20.349 126.692 19.8327C126.399 19.3121 126.084 18.8134 125.747 18.3277C125.405 17.8421 125.042 17.374 124.657 16.9233C124.268 16.4771 123.861 16.0484 123.432 15.6371C123.004 15.2302 122.553 14.8452 122.085 14.4821C121.617 14.119 121.131 13.7777 120.632 13.4627C120.129 13.1477 119.613 12.859 119.084 12.5921C118.55 12.3296 118.007 12.0934 117.456 11.8834C116.9 11.6734 116.336 11.494 115.763 11.3408C115.19 11.1877 114.612 11.0609 114.026 10.9646C113.444 10.8684 112.854 10.8027 112.263 10.7677C111.672 10.7327 111.082 10.724 110.487 10.7459C109.896 10.7677 109.305 10.8202 108.719 10.899C108.133 10.9821 107.551 11.0915 106.974 11.2315C106.396 11.3715 105.832 11.5377 105.272 11.7346C104.712 11.9315 104.165 12.1546 103.627 12.404C103.089 12.6533 102.568 12.929 102.056 13.2352C101.549 13.5371 101.054 13.8652 100.577 14.2152C100.1 14.5696 99.641 14.9415 99.2035 15.3396C98.7617 15.7377 98.346 16.1577 97.9479 16.5952C97.5498 17.0371 97.1735 17.4965 96.8235 17.9734C96.4735 18.4502 96.1454 18.9402 95.8435 19.4521C95.5416 19.9596 95.2617 20.4846 95.0123 21.0227C94.7629 21.5609 94.5398 22.1077 94.3429 22.6677C94.1504 23.2277 93.9842 23.7965 93.8442 24.3696C93.7042 24.9471 93.5948 25.529 93.516 26.1152C93.4329 26.7015 93.3804 27.2921 93.3585 27.8871C92.0285 49.0446 91.661 70.3333 91.6435 91.6527ZM379.09 88.9271H331.818L331.962 88.6515C336.385 80.9733 336.272 81.2008 340.874 73.7765C348.15 62.0252 354.752 49.9065 360.689 37.4246C360.982 36.8952 361.249 36.3484 361.485 35.7927C361.725 35.2371 361.935 34.6684 362.115 34.0909C362.294 33.5134 362.447 32.9271 362.565 32.3365C362.688 31.7415 362.78 31.1465 362.837 30.5427C362.898 29.939 362.929 29.3352 362.924 28.7315C362.924 28.1234 362.894 27.5196 362.828 26.9202C362.767 26.3165 362.67 25.7171 362.548 25.1265C362.425 24.5315 362.268 23.9496 362.084 23.3721C361.9 22.7946 361.69 22.2302 361.45 21.6746C361.205 21.119 360.938 20.5765 360.64 20.0471C360.343 19.5221 360.019 19.0102 359.674 18.5159C359.324 18.0215 358.952 17.5446 358.554 17.0896C358.155 16.6302 357.735 16.1971 357.294 15.7815C356.852 15.3659 356.388 14.9765 355.907 14.609C355.425 14.2415 354.927 13.9002 354.41 13.5852C353.894 13.2702 353.365 12.9815 352.818 12.719C352.271 12.4565 351.711 12.2246 351.142 12.019C350.574 11.8133 349.996 11.6384 349.405 11.494C348.819 11.3452 348.224 11.2315 347.625 11.1484C347.025 11.0609 346.426 11.0084 345.818 10.9821C345.214 10.9602 344.61 10.9646 344.007 11.004C343.403 11.0434 342.799 11.109 342.204 11.2096C341.605 11.3059 341.014 11.4371 340.432 11.5946C339.846 11.7565 339.273 11.9446 338.709 12.1634C338.144 12.3821 337.589 12.6271 337.05 12.8984C336.512 13.174 335.987 13.4759 335.475 13.804C334.968 14.1321 334.478 14.4821 334.005 14.8627C333.529 15.239 333.078 15.6415 332.645 16.0659C332.212 16.4902 331.805 16.9321 331.415 17.4002C331.03 17.864 330.667 18.3496 330.33 18.8527C329.994 19.3559 329.683 19.8721 329.399 20.4058C329.114 20.944 328.856 21.4909 328.629 22.0508C323.26 33.3559 317.284 44.3284 310.704 54.9771C305.769 62.9921 305.896 62.6684 301.088 70.9065C298.091 75.8065 295.418 80.8771 293.073 86.1227C292.53 87.2908 292.159 88.5902 291.472 89.7277C285.334 100.324 287.272 107.936 289.691 112.635C292.482 118.034 300.16 124.544 314.572 124.544H379.217C379.361 139.275 379.536 154.005 379.536 168.705C379.519 169.3 379.532 169.895 379.575 170.486C379.615 171.081 379.685 171.667 379.785 172.253C379.886 172.84 380.017 173.421 380.175 173.995C380.332 174.563 380.52 175.128 380.735 175.683C380.949 176.239 381.194 176.777 381.461 177.311C381.732 177.84 382.025 178.352 382.349 178.855C382.669 179.354 383.014 179.84 383.382 180.303C383.754 180.767 384.143 181.213 384.559 181.642C384.974 182.066 385.407 182.473 385.862 182.858C386.317 183.239 386.79 183.598 387.28 183.935C387.77 184.271 388.277 184.582 388.798 184.866C389.319 185.151 389.852 185.409 390.399 185.641C390.946 185.873 391.506 186.078 392.075 186.253C392.639 186.428 393.217 186.573 393.799 186.691C394.38 186.809 394.967 186.901 395.562 186.958C396.152 187.019 396.743 187.05 397.338 187.05C397.933 187.05 398.528 187.019 399.119 186.958C399.709 186.901 400.295 186.809 400.877 186.691C401.459 186.573 402.037 186.428 402.605 186.253C403.17 186.078 403.73 185.873 404.277 185.641C404.824 185.409 405.357 185.151 405.882 184.866C406.403 184.582 406.906 184.271 407.4 183.935C407.89 183.598 408.363 183.239 408.818 182.858C409.269 182.473 409.706 182.066 410.117 181.642C410.533 181.213 410.922 180.767 411.294 180.303C411.662 179.84 412.007 179.354 412.331 178.855C412.65 178.352 412.944 177.84 413.215 177.311C413.482 176.777 413.727 176.239 413.941 175.683C414.155 175.128 414.344 174.563 414.501 173.995C414.659 173.421 414.79 172.84 414.89 172.253C414.991 171.667 415.061 171.081 415.105 170.486C415.144 169.895 415.157 169.3 415.14 168.705C415.14 121.705 413.329 74.2927 416.26 27.3883C416.308 26.2377 416.238 25.0958 416.063 23.9584C415.884 22.8165 415.599 21.7096 415.205 20.6246C414.812 19.544 414.322 18.5115 413.727 17.5227C413.132 16.5384 412.449 15.6152 411.679 14.7621C410.909 13.909 410.06 13.1346 409.137 12.4477C408.219 11.7565 407.239 11.1615 406.202 10.6627C405.165 10.1596 404.089 9.76585 402.973 9.47272C401.862 9.18397 400.729 9.00023 399.582 8.93022C398.432 8.85585 397.285 8.89522 396.144 9.04397C395.002 9.1971 393.886 9.45522 392.797 9.81835C391.703 10.1859 390.657 10.654 389.655 11.2227C388.658 11.7959 387.722 12.4521 386.847 13.2046C385.976 13.9571 385.184 14.784 384.471 15.6896C383.758 16.5952 383.141 17.5577 382.616 18.5815C382.091 19.6096 381.671 20.6727 381.352 21.7796C381.032 22.8865 380.822 24.0109 380.726 25.1615C379.392 46.3365 379.007 67.6208 378.994 88.9271H379.09ZM228.235 167.743L202.891 163.495C202.147 161.906 201.609 160.253 201.29 158.525C200.437 155.112 199.877 151.586 199.22 148.3C194.907 126.806 196.622 104.345 196.622 82.4171C196.762 71.0596 197.475 59.7371 198.77 48.4496C198.98 46.4152 198.083 44.6521 199.365 42.9677C203.084 37.9977 211.225 36.029 218.969 35.644C225.733 35.3071 233.057 35.7402 236.36 40.6752C238.875 44.4596 239.085 51.4159 240.354 55.7602C243.334 66.1727 244.812 76.7952 244.79 87.6277C244.79 108.58 247.004 129.641 247.004 150.72C247.004 160.226 237.69 166.443 228.218 167.743H228.235Z" fill="#F7FAFF"/>
</svg>
